<?xml version="1.0" ?><svg id="Layer_1" style="enable-background:new 0 0 395.574 395.574;" version="1.1" viewBox="0 0 395.574 395.574" xml:space="preserve" xmlns="http://www.w3.org/2000/svg" xmlns:xlink="http://www.w3.org/1999/xlink"><g id="Grilled_x5F_pork_x5F_skewer"><path d="M344.503,165.49l-77.84-44.941c-9.199-5.311-12.351-17.074-7.04-26.273   l19.61-33.966c7.517-13.019,21.89-20.51,36.867-19.214l27.998,2.422c11.428,0.989,21.828,6.994,28.399,16.396l16.097,23.036   c8.611,12.323,9.31,28.516,1.794,41.535l-19.61,33.966C365.466,167.649,353.703,170.801,344.503,165.49z" id="XMLID_1643_" style="fill:#CC826A;"/><path d="M253.246,304.697l-61.512-35.514c-13.708-7.915-18.405-25.443-10.491-39.152   l17.599-30.483c5.311-9.199,17.074-12.351,26.273-7.04l77.84,44.941c9.199,5.311,12.351,17.074,7.04,26.274l-17.599,30.483   C284.483,307.915,266.954,312.612,253.246,304.697z" id="XMLID_66_" style="fill:#CC826A;"/><rect height="316" id="XMLID_930_" style="fill:#F3CFAD;" transform="matrix(0.866 0.5 -0.5 0.866 149.5547 -95.0618)" width="5" x="249.665" y="73.542"/><path d="M302.957,237.45l-77.84-44.941c-9.199-5.311-12.351-17.074-7.04-26.273   l22.313-38.647c5.311-9.199,17.074-12.351,26.273-7.04l77.84,44.941c9.199,5.311,12.351,17.074,7.04,26.273L329.23,230.41   C323.919,239.61,312.156,242.762,302.957,237.45z" id="XMLID_64_" style="fill:#A56858;"/><path d="M281.151,226.338l-57.158-33c-0.717-0.414-0.963-1.332-0.549-2.049   s1.332-0.963,2.049-0.549l57.158,33c0.717,0.414,0.963,1.332,0.549,2.049S281.868,226.752,281.151,226.338z" id="XMLID_1325_" style="fill:#7F4835;"/><path d="M339.105,163.957l-57.158-33c-0.717-0.414-0.963-1.332-0.549-2.049   s1.332-0.963,2.049-0.549l57.158,33c0.717,0.414,0.963,1.332,0.549,2.049S339.822,164.372,339.105,163.957z" id="XMLID_1326_" style="fill:#7F4835;"/><path d="M131.957,222.45l-77.84-44.941c-9.199-5.311-12.351-17.074-7.04-26.273   l22.313-38.647c5.311-9.199,17.074-12.351,26.274-7.04l77.84,44.941c9.199,5.311,12.351,17.074,7.04,26.273L158.23,215.41   C152.919,224.61,141.156,227.762,131.957,222.45z" id="XMLID_906_" style="fill:#CC826A;"/><rect height="316" id="XMLID_716_" style="fill:#F3CFAD;" transform="matrix(0.866 0.5 -0.5 0.866 119.1451 -11.5714)" width="5" x="78.665" y="58.542"/><path d="M173.503,150.49l-77.84-44.941c-9.199-5.311-12.351-17.074-7.04-26.273   l19.61-33.966c7.517-13.019,21.89-20.51,36.867-19.214l27.998,2.422c11.428,0.989,21.828,6.994,28.399,16.396l16.097,23.036   c8.611,12.323,9.31,28.516,1.794,41.535l-19.61,33.966C194.466,152.649,182.703,155.801,173.503,150.49z" id="XMLID_910_" style="fill:#A56858;"/><path d="M82.246,289.697l-61.512-35.514c-13.708-7.915-18.405-25.443-10.491-39.152   l17.599-30.483c5.311-9.199,17.074-12.351,26.274-7.04l77.84,44.941c9.199,5.311,12.351,17.074,7.04,26.273l-17.599,30.483   C113.483,292.915,95.954,297.612,82.246,289.697z" id="XMLID_908_" style="fill:#A56858;"/><path d="M110.151,211.338l-57.158-33c-0.718-0.414-0.963-1.332-0.549-2.049   s1.331-0.963,2.049-0.549l57.158,33c0.718,0.414,0.963,1.332,0.549,2.049S110.868,211.752,110.151,211.338z" id="XMLID_1323_" style="fill:#7F4835;"/><path d="M171.105,151.957l-57.158-33c-0.718-0.414-0.963-1.332-0.549-2.049   s1.331-0.963,2.049-0.549l57.158,33c0.718,0.414,0.963,1.332,0.549,2.049S171.823,152.372,171.105,151.957z" id="XMLID_1322_" style="fill:#7F4835;"/></g><g/><g/><g/><g/><g/><g/><g/><g/><g/><g/><g/><g/><g/><g/><g/></svg>